Coordinates
version=1
nRows=9
nColumns=24
inDegrees=yes

Units are S.I. units (second, meters, Newtons, ...)
Angles are in degrees.

endheader
time	pelvis_tilt	pelvis_list	pelvis_rotation	pelvis_tx	pelvis_ty	pelvis_tz	hip_flexion_r	hip_adduction_r	hip_rotation_r	knee_angle_r	ankle_angle_r	subtalar_angle_r	mtp_angle_r	hip_flexion_l	hip_adduction_l	hip_rotation_l	knee_angle_l	ankle_angle_l	subtalar_angle_l	mtp_angle_l	lumbar_extension	lumbar_bending	lumbar_rotation
      1.03633333	     -4.57222983	     -5.18852317	      2.68671654	      0.51185987	      0.99570709	      0.31816659	     15.88626485	      9.06328909	      0.53491537	    -22.68381147	     10.03676896	    -16.49836133	      1.54582570	     15.14997583	     -6.91633563	      2.36205096	    -70.21288908	      0.76628165	     -3.13936211	      7.19876349	     -5.46576958	     14.45251803	     -6.47171900
      1.04050000	     -4.44343889	     -5.05117758	      2.58715177	      0.51645251	      0.99697558	      0.31861806	     15.16607803	      8.99190695	      0.72321413	    -22.10925601	     10.02586409	    -16.50231423	      1.57473549	     15.62284260	     -6.82352761	      2.19071914	    -70.09209669	      1.45509222	     -2.92023702	      7.07357767	     -5.65675882	     14.21376547	     -6.09643730
      1.04466667	     -4.34107746	     -4.88872039	      2.48191180	      0.52100406	      0.99816314	      0.31903219	     14.49529085	      8.88492371	      0.90260745	    -21.57689379	      9.98408329	    -16.49365435	      1.60569188	     16.11467564	     -6.69025421	      2.02387737	    -69.92836326	      2.13923574	     -2.77674909	      6.94107160	     -5.83344120	     13.96171540	     -5.79197818
      1.04883333	     -4.24594146	     -4.73138804	      2.36627094	      0.52554785	      0.99931155	      0.31943643	     13.83110984	      8.78010796	      1.09181991	    -21.03514836	      9.91303522	    -16.48768546	      1.66205908	     16.60436892	     -6.56203644	      1.85149570	    -69.72010153	      2.79617820	     -2.68729163	      6.69855572	     -6.00798321	     13.72260855	     -5.42702334
      1.05300000	     -4.15484898	     -4.55872519	      2.26896867	      0.53008834	      1.00042034	      0.31981269	     13.18193279	      8.64829422	      1.24326166	    -20.51744405	      9.91015083	    -16.44581051	      1.69364347	     17.09265348	     -6.41699269	      1.69302037	    -69.46652086	      3.44264245	     -2.50632811	      6.57954134	     -6.14673413	     13.46003948	     -5.22726109
      1.05716667	     -4.05303393	     -4.39113324	      2.15917943	      0.53463332	      1.00150880	      0.32018345	     12.51929165	      8.52283132	      1.41607262	    -19.99222771	      9.86808023	    -16.42419362	      1.72728696	     17.55461670	     -6.27897611	      1.52458171	    -69.16548747	      4.06137721	     -2.38372075	      6.44690761	     -6.31758425	     13.20687003	     -4.93699296
      1.06133333	     -3.95598445	     -4.23637017	      2.04740332	      0.53916821	      1.00254444	      0.32053974	     11.86373678	      8.40658208	      1.58992592	    -19.46300849	      9.81951141	    -16.40816419	      1.76275784	     18.01629927	     -6.15474328	      1.36166043	    -68.82946698	      4.65867853	     -2.27200723	      6.30994810	     -6.47584758	     12.96965178	     -4.65044148
      1.06550000	     -3.84223661	     -4.07712667	      1.93490866	      0.54370652	      1.00357855	      0.32088561	     11.18920056	      8.28225235	      1.76299044	    -18.92959306	      9.77077689	    -16.39097585	      1.79952970	     18.44649736	     -6.02634125	      1.19977508	    -68.44260155	      5.22060955	     -2.18431480	      6.17021426	     -6.65230877	     12.72896954	     -4.37262737
      1.06966667	     -3.74117872	     -3.91440900	      1.81935372	      0.54824440	      1.00455206	      0.32121169	     10.53366633	      8.14933456	      1.93822502	    -18.40616462	      9.72464911	    -16.37210664	      1.83932537	     18.88022785	     -5.89088085	      1.04047618	    -68.01680117	      5.74667252	     -2.11825345	      6.02022526	     -6.81254665	     12.48741848	     -4.08799364
